<svg width="61" height="61" viewBox="0 0 61 61" fill="none" xmlns="http://www.w3.org/2000/svg">
<circle cx="30.5" cy="30.5" r="30.5" fill="#5580E9"/>
<path d="M51.0429 45.5539C47.8221 49.6387 40.4137 55.3574 34.616 55.3574C34.6159 52.0896 31.7171 42.286 37.5149 37.3842C43.3126 33.2994 53.6387 32.4824 56.8407 32.4824C55.8744 39.8351 52.9755 43.103 51.0429 45.5539Z" fill="white"/>
<path d="M9.91526 45.5539C13.1361 49.6387 20.5445 55.3574 26.3422 55.3574C26.3423 52.0896 29.2411 42.286 23.4433 37.3842C17.6456 33.2994 7.31951 32.4824 4.1175 32.4824C5.08379 39.8351 7.98273 43.103 9.91526 45.5539Z" fill="white"/>
<circle cx="30.4025" cy="21.4025" r="15.4025" fill="white"/>
<path d="M43.2337 18.3002C43.2337 21.9602 37.5668 16.4702 30.5762 16.4702C23.5857 16.4702 17.7662 21.8077 17.7662 18.3002C17.7662 15.963 22.4937 8.3877 30.5762 8.3877C39.4212 8.3877 43.2337 15.963 43.2337 18.3002Z" fill="#5580E9"/>
<path d="M39.7067 30.2834C37.3189 32.8897 35.5383 33.5128 33.5088 33.6618C32.4072 33.7427 31.376 32.8266 31.14 31.7475C30.741 29.9232 30.4651 27.4067 32.9977 24.4824C35.1197 22.0322 38.7432 21.8268 41.1834 21.8942C42.3211 21.9256 43.2441 22.9368 43.0123 24.0511C42.4801 26.6104 41.2097 28.643 39.7067 30.2834Z" fill="#5580E9"/>
<path d="M21.3433 30.2836C23.7457 32.8938 25.5363 33.5149 27.5789 33.6627C28.6805 33.7425 29.7123 32.8269 29.9494 31.7481C30.3503 29.9238 30.6276 27.4071 28.0832 24.4825C25.9488 22.0291 22.3022 21.8263 19.8506 21.8944C18.7128 21.9261 17.7898 22.9371 18.0226 24.0513C18.5573 26.6106 19.8335 28.6432 21.3433 30.2836Z" fill="#5580E9"/>
<path d="M29.726 23.164L30.194 21.946L29.048 18.934H29.75L30.452 20.806C30.468 20.85 30.484 20.897 30.5 20.947C30.516 20.997 30.53 21.046 30.542 21.094C30.558 21.042 30.574 20.992 30.59 20.944C30.606 20.896 30.622 20.85 30.638 20.806L31.34 18.934H32.048L30.44 23.164H29.726Z" fill="#5580E9"/>
</svg>
